<mxfile host="app.diagrams.net" modified="2023-10-18T21:58:29.527Z" agent="Mozilla/5.0 (Macintosh; Intel Mac OS X 10_15_7) AppleWebKit/537.36 (KHTML, like Gecko) Chrome/116.0.0.0 Safari/537.36" etag="tCYvUpEoni3amzuJCERD" version="22.0.4" type="github">
  <diagram id="R2lEEEUBdFMjLlhIrx00" name="Page-1">
    <mxGraphModel dx="1578" dy="1211" grid="0" gridSize="10" guides="1" tooltips="1" connect="1" arrows="1" fold="1" page="0" pageScale="1" pageWidth="850" pageHeight="1100" math="0" shadow="0" extFonts="Permanent Marker^https://fonts.googleapis.com/css?family=Permanent+Marker">
      <root>
        <mxCell id="0" />
        <mxCell id="1" parent="0" />
        <mxCell id="C-vyLk0tnHw3VtMMgP7b-13" value="Item History" style="shape=table;startSize=30;container=1;collapsible=1;childLayout=tableLayout;fixedRows=1;rowLines=0;fontStyle=1;align=center;resizeLast=1;" parent="1" vertex="1">
          <mxGeometry x="251" y="632" width="273" height="160" as="geometry" />
        </mxCell>
        <mxCell id="C-vyLk0tnHw3VtMMgP7b-17" value="" style="shape=partialRectangle;collapsible=0;dropTarget=0;pointerEvents=0;fillColor=none;points=[[0,0.5],[1,0.5]];portConstraint=eastwest;top=0;left=0;right=0;bottom=0;" parent="C-vyLk0tnHw3VtMMgP7b-13" vertex="1">
          <mxGeometry y="30" width="273" height="30" as="geometry" />
        </mxCell>
        <mxCell id="C-vyLk0tnHw3VtMMgP7b-18" value="PKFK" style="shape=partialRectangle;overflow=hidden;connectable=0;fillColor=none;top=0;left=0;bottom=0;right=0;fontStyle=1" parent="C-vyLk0tnHw3VtMMgP7b-17" vertex="1">
          <mxGeometry width="46.2115478515625" height="30" as="geometry">
            <mxRectangle width="46.2115478515625" height="30" as="alternateBounds" />
          </mxGeometry>
        </mxCell>
        <mxCell id="C-vyLk0tnHw3VtMMgP7b-19" value="userID int NOT NULL" style="shape=partialRectangle;overflow=hidden;connectable=0;fillColor=none;top=0;left=0;bottom=0;right=0;align=left;spacingLeft=6;fontStyle=5" parent="C-vyLk0tnHw3VtMMgP7b-17" vertex="1">
          <mxGeometry x="46.2115478515625" width="226.7884521484375" height="30" as="geometry">
            <mxRectangle width="226.7884521484375" height="30" as="alternateBounds" />
          </mxGeometry>
        </mxCell>
        <mxCell id="bMOGCI0mvxFbiY0Pb2sO-291" value="" style="shape=partialRectangle;collapsible=0;dropTarget=0;pointerEvents=0;fillColor=none;points=[[0,0.5],[1,0.5]];portConstraint=eastwest;top=0;left=0;right=0;bottom=0;" parent="C-vyLk0tnHw3VtMMgP7b-13" vertex="1">
          <mxGeometry y="60" width="273" height="30" as="geometry" />
        </mxCell>
        <mxCell id="bMOGCI0mvxFbiY0Pb2sO-292" value="PKFK" style="shape=partialRectangle;overflow=hidden;connectable=0;fillColor=none;top=0;left=0;bottom=0;right=0;fontStyle=1" parent="bMOGCI0mvxFbiY0Pb2sO-291" vertex="1">
          <mxGeometry width="46.2115478515625" height="30" as="geometry">
            <mxRectangle width="46.2115478515625" height="30" as="alternateBounds" />
          </mxGeometry>
        </mxCell>
        <mxCell id="bMOGCI0mvxFbiY0Pb2sO-293" value="productID int NOT NULL" style="shape=partialRectangle;overflow=hidden;connectable=0;fillColor=none;top=0;left=0;bottom=0;right=0;align=left;spacingLeft=6;fontStyle=5" parent="bMOGCI0mvxFbiY0Pb2sO-291" vertex="1">
          <mxGeometry x="46.2115478515625" width="226.7884521484375" height="30" as="geometry">
            <mxRectangle width="226.7884521484375" height="30" as="alternateBounds" />
          </mxGeometry>
        </mxCell>
        <mxCell id="C-vyLk0tnHw3VtMMgP7b-14" value="" style="shape=partialRectangle;collapsible=0;dropTarget=0;pointerEvents=0;fillColor=none;points=[[0,0.5],[1,0.5]];portConstraint=eastwest;top=0;left=0;right=0;bottom=1;" parent="C-vyLk0tnHw3VtMMgP7b-13" vertex="1">
          <mxGeometry y="90" width="273" height="30" as="geometry" />
        </mxCell>
        <mxCell id="C-vyLk0tnHw3VtMMgP7b-15" value="PK" style="shape=partialRectangle;overflow=hidden;connectable=0;fillColor=none;top=0;left=0;bottom=0;right=0;fontStyle=1;" parent="C-vyLk0tnHw3VtMMgP7b-14" vertex="1">
          <mxGeometry width="46.2115478515625" height="30" as="geometry">
            <mxRectangle width="46.2115478515625" height="30" as="alternateBounds" />
          </mxGeometry>
        </mxCell>
        <mxCell id="C-vyLk0tnHw3VtMMgP7b-16" value="viewDate datetime NOT NULL" style="shape=partialRectangle;overflow=hidden;connectable=0;fillColor=none;top=0;left=0;bottom=0;right=0;align=left;spacingLeft=6;fontStyle=5;" parent="C-vyLk0tnHw3VtMMgP7b-14" vertex="1">
          <mxGeometry x="46.2115478515625" width="226.7884521484375" height="30" as="geometry">
            <mxRectangle width="226.7884521484375" height="30" as="alternateBounds" />
          </mxGeometry>
        </mxCell>
        <mxCell id="C-vyLk0tnHw3VtMMgP7b-20" value="" style="shape=partialRectangle;collapsible=0;dropTarget=0;pointerEvents=0;fillColor=none;points=[[0,0.5],[1,0.5]];portConstraint=eastwest;top=0;left=0;right=0;bottom=0;" parent="C-vyLk0tnHw3VtMMgP7b-13" vertex="1">
          <mxGeometry y="120" width="273" height="30" as="geometry" />
        </mxCell>
        <mxCell id="C-vyLk0tnHw3VtMMgP7b-21" value="" style="shape=partialRectangle;overflow=hidden;connectable=0;fillColor=none;top=0;left=0;bottom=0;right=0;" parent="C-vyLk0tnHw3VtMMgP7b-20" vertex="1">
          <mxGeometry width="46.2115478515625" height="30" as="geometry">
            <mxRectangle width="46.2115478515625" height="30" as="alternateBounds" />
          </mxGeometry>
        </mxCell>
        <mxCell id="C-vyLk0tnHw3VtMMgP7b-22" value="hasBid bool" style="shape=partialRectangle;overflow=hidden;connectable=0;fillColor=none;top=0;left=0;bottom=0;right=0;align=left;spacingLeft=6;" parent="C-vyLk0tnHw3VtMMgP7b-20" vertex="1">
          <mxGeometry x="46.2115478515625" width="226.7884521484375" height="30" as="geometry">
            <mxRectangle width="226.7884521484375" height="30" as="alternateBounds" />
          </mxGeometry>
        </mxCell>
        <mxCell id="bMOGCI0mvxFbiY0Pb2sO-16" value="" style="endArrow=none;html=1;rounded=0;align=center;verticalAlign=bottom;labelBackgroundColor=none;startArrow=none;startFill=0;entryX=-0.004;entryY=0.133;entryDx=0;entryDy=0;dashed=1;dashPattern=12 12;entryPerimeter=0;" parent="1" target="bMOGCI0mvxFbiY0Pb2sO-233" edge="1">
          <mxGeometry relative="1" as="geometry">
            <mxPoint x="118" y="276" as="sourcePoint" />
            <mxPoint x="255" y="278" as="targetPoint" />
          </mxGeometry>
        </mxCell>
        <mxCell id="bMOGCI0mvxFbiY0Pb2sO-50" value="User&lt;br&gt;" style="shape=table;startSize=30;container=1;collapsible=1;childLayout=tableLayout;fixedRows=1;rowLines=0;fontStyle=1;align=center;resizeLast=1;html=1;" parent="1" vertex="1">
          <mxGeometry x="-30" y="-54" width="263" height="200" as="geometry" />
        </mxCell>
        <mxCell id="bMOGCI0mvxFbiY0Pb2sO-51" value="" style="shape=tableRow;horizontal=0;startSize=0;swimlaneHead=0;swimlaneBody=0;fillColor=none;collapsible=0;dropTarget=0;points=[[0,0.5],[1,0.5]];portConstraint=eastwest;top=0;left=0;right=0;bottom=1;" parent="bMOGCI0mvxFbiY0Pb2sO-50" vertex="1">
          <mxGeometry y="30" width="263" height="20" as="geometry" />
        </mxCell>
        <mxCell id="bMOGCI0mvxFbiY0Pb2sO-52" value="PK" style="shape=partialRectangle;connectable=0;fillColor=none;top=0;left=0;bottom=0;right=0;fontStyle=1;overflow=hidden;whiteSpace=wrap;html=1;" parent="bMOGCI0mvxFbiY0Pb2sO-51" vertex="1">
          <mxGeometry width="30" height="20" as="geometry">
            <mxRectangle width="30" height="20" as="alternateBounds" />
          </mxGeometry>
        </mxCell>
        <mxCell id="bMOGCI0mvxFbiY0Pb2sO-53" value="userID int NOT NULL" style="shape=partialRectangle;connectable=0;fillColor=none;top=0;left=0;bottom=0;right=0;align=left;spacingLeft=6;fontStyle=5;overflow=hidden;whiteSpace=wrap;html=1;" parent="bMOGCI0mvxFbiY0Pb2sO-51" vertex="1">
          <mxGeometry x="30" width="233" height="20" as="geometry">
            <mxRectangle width="233" height="20" as="alternateBounds" />
          </mxGeometry>
        </mxCell>
        <mxCell id="bMOGCI0mvxFbiY0Pb2sO-54" value="" style="shape=tableRow;horizontal=0;startSize=0;swimlaneHead=0;swimlaneBody=0;fillColor=none;collapsible=0;dropTarget=0;points=[[0,0.5],[1,0.5]];portConstraint=eastwest;top=0;left=0;right=0;bottom=0;" parent="bMOGCI0mvxFbiY0Pb2sO-50" vertex="1">
          <mxGeometry y="50" width="263" height="30" as="geometry" />
        </mxCell>
        <mxCell id="bMOGCI0mvxFbiY0Pb2sO-55" value="" style="shape=partialRectangle;connectable=0;fillColor=none;top=0;left=0;bottom=0;right=0;editable=1;overflow=hidden;whiteSpace=wrap;html=1;" parent="bMOGCI0mvxFbiY0Pb2sO-54" vertex="1">
          <mxGeometry width="30" height="30" as="geometry">
            <mxRectangle width="30" height="30" as="alternateBounds" />
          </mxGeometry>
        </mxCell>
        <mxCell id="bMOGCI0mvxFbiY0Pb2sO-56" value="firstName varchar(20) NOT NULL" style="shape=partialRectangle;connectable=0;fillColor=none;top=0;left=0;bottom=0;right=0;align=left;spacingLeft=6;overflow=hidden;whiteSpace=wrap;html=1;" parent="bMOGCI0mvxFbiY0Pb2sO-54" vertex="1">
          <mxGeometry x="30" width="233" height="30" as="geometry">
            <mxRectangle width="233" height="30" as="alternateBounds" />
          </mxGeometry>
        </mxCell>
        <mxCell id="bMOGCI0mvxFbiY0Pb2sO-57" value="" style="shape=tableRow;horizontal=0;startSize=0;swimlaneHead=0;swimlaneBody=0;fillColor=none;collapsible=0;dropTarget=0;points=[[0,0.5],[1,0.5]];portConstraint=eastwest;top=0;left=0;right=0;bottom=0;" parent="bMOGCI0mvxFbiY0Pb2sO-50" vertex="1">
          <mxGeometry y="80" width="263" height="30" as="geometry" />
        </mxCell>
        <mxCell id="bMOGCI0mvxFbiY0Pb2sO-58" value="" style="shape=partialRectangle;connectable=0;fillColor=none;top=0;left=0;bottom=0;right=0;editable=1;overflow=hidden;whiteSpace=wrap;html=1;" parent="bMOGCI0mvxFbiY0Pb2sO-57" vertex="1">
          <mxGeometry width="30" height="30" as="geometry">
            <mxRectangle width="30" height="30" as="alternateBounds" />
          </mxGeometry>
        </mxCell>
        <mxCell id="bMOGCI0mvxFbiY0Pb2sO-59" value="lastName varchar(20) NOT NULL" style="shape=partialRectangle;connectable=0;fillColor=none;top=0;left=0;bottom=0;right=0;align=left;spacingLeft=6;overflow=hidden;whiteSpace=wrap;html=1;" parent="bMOGCI0mvxFbiY0Pb2sO-57" vertex="1">
          <mxGeometry x="30" width="233" height="30" as="geometry">
            <mxRectangle width="233" height="30" as="alternateBounds" />
          </mxGeometry>
        </mxCell>
        <mxCell id="bMOGCI0mvxFbiY0Pb2sO-60" value="" style="shape=tableRow;horizontal=0;startSize=0;swimlaneHead=0;swimlaneBody=0;fillColor=none;collapsible=0;dropTarget=0;points=[[0,0.5],[1,0.5]];portConstraint=eastwest;top=0;left=0;right=0;bottom=0;" parent="bMOGCI0mvxFbiY0Pb2sO-50" vertex="1">
          <mxGeometry y="110" width="263" height="30" as="geometry" />
        </mxCell>
        <mxCell id="bMOGCI0mvxFbiY0Pb2sO-61" value="" style="shape=partialRectangle;connectable=0;fillColor=none;top=0;left=0;bottom=0;right=0;editable=1;overflow=hidden;whiteSpace=wrap;html=1;" parent="bMOGCI0mvxFbiY0Pb2sO-60" vertex="1">
          <mxGeometry width="30" height="30" as="geometry">
            <mxRectangle width="30" height="30" as="alternateBounds" />
          </mxGeometry>
        </mxCell>
        <mxCell id="bMOGCI0mvxFbiY0Pb2sO-62" value="password varchar(20) NOT NULL" style="shape=partialRectangle;connectable=0;fillColor=none;top=0;left=0;bottom=0;right=0;align=left;spacingLeft=6;overflow=hidden;whiteSpace=wrap;html=1;" parent="bMOGCI0mvxFbiY0Pb2sO-60" vertex="1">
          <mxGeometry x="30" width="233" height="30" as="geometry">
            <mxRectangle width="233" height="30" as="alternateBounds" />
          </mxGeometry>
        </mxCell>
        <mxCell id="bMOGCI0mvxFbiY0Pb2sO-63" value="" style="shape=tableRow;horizontal=0;startSize=0;swimlaneHead=0;swimlaneBody=0;fillColor=none;collapsible=0;dropTarget=0;points=[[0,0.5],[1,0.5]];portConstraint=eastwest;top=0;left=0;right=0;bottom=0;" parent="bMOGCI0mvxFbiY0Pb2sO-50" vertex="1">
          <mxGeometry y="140" width="263" height="30" as="geometry" />
        </mxCell>
        <mxCell id="bMOGCI0mvxFbiY0Pb2sO-64" value="" style="shape=partialRectangle;connectable=0;fillColor=none;top=0;left=0;bottom=0;right=0;editable=1;overflow=hidden;whiteSpace=wrap;html=1;" parent="bMOGCI0mvxFbiY0Pb2sO-63" vertex="1">
          <mxGeometry width="30" height="30" as="geometry">
            <mxRectangle width="30" height="30" as="alternateBounds" />
          </mxGeometry>
        </mxCell>
        <mxCell id="bMOGCI0mvxFbiY0Pb2sO-65" value="email varchar(20) NOT NULL" style="shape=partialRectangle;connectable=0;fillColor=none;top=0;left=0;bottom=0;right=0;align=left;spacingLeft=6;overflow=hidden;whiteSpace=wrap;html=1;" parent="bMOGCI0mvxFbiY0Pb2sO-63" vertex="1">
          <mxGeometry x="30" width="233" height="30" as="geometry">
            <mxRectangle width="233" height="30" as="alternateBounds" />
          </mxGeometry>
        </mxCell>
        <mxCell id="bMOGCI0mvxFbiY0Pb2sO-82" value="" style="shape=tableRow;horizontal=0;startSize=0;swimlaneHead=0;swimlaneBody=0;fillColor=none;collapsible=0;dropTarget=0;points=[[0,0.5],[1,0.5]];portConstraint=eastwest;top=0;left=0;right=0;bottom=0;" parent="bMOGCI0mvxFbiY0Pb2sO-50" vertex="1">
          <mxGeometry y="170" width="263" height="30" as="geometry" />
        </mxCell>
        <mxCell id="bMOGCI0mvxFbiY0Pb2sO-83" value="" style="shape=partialRectangle;connectable=0;fillColor=none;top=0;left=0;bottom=0;right=0;editable=1;overflow=hidden;whiteSpace=wrap;html=1;" parent="bMOGCI0mvxFbiY0Pb2sO-82" vertex="1">
          <mxGeometry width="30" height="30" as="geometry">
            <mxRectangle width="30" height="30" as="alternateBounds" />
          </mxGeometry>
        </mxCell>
        <mxCell id="bMOGCI0mvxFbiY0Pb2sO-84" value="userType varchar(6) NOT NULL" style="shape=partialRectangle;connectable=0;fillColor=none;top=0;left=0;bottom=0;right=0;align=left;spacingLeft=6;overflow=hidden;whiteSpace=wrap;html=1;" parent="bMOGCI0mvxFbiY0Pb2sO-82" vertex="1">
          <mxGeometry x="30" width="233" height="30" as="geometry">
            <mxRectangle width="233" height="30" as="alternateBounds" />
          </mxGeometry>
        </mxCell>
        <mxCell id="bMOGCI0mvxFbiY0Pb2sO-274" style="rounded=0;orthogonalLoop=1;jettySize=auto;html=1;entryX=0.75;entryY=0;entryDx=0;entryDy=0;" parent="1" target="bMOGCI0mvxFbiY0Pb2sO-238" edge="1">
          <mxGeometry relative="1" as="geometry">
            <mxPoint x="114" y="151" as="sourcePoint" />
          </mxGeometry>
        </mxCell>
        <mxCell id="C-vyLk0tnHw3VtMMgP7b-23" value="Seller" style="shape=table;startSize=30;container=1;collapsible=1;childLayout=tableLayout;fixedRows=1;rowLines=0;fontStyle=1;align=center;resizeLast=1;swimlaneLine=1;" parent="1" vertex="1">
          <mxGeometry x="-225" y="258" width="250" height="61" as="geometry" />
        </mxCell>
        <mxCell id="C-vyLk0tnHw3VtMMgP7b-27" value="" style="shape=partialRectangle;collapsible=0;dropTarget=0;pointerEvents=0;fillColor=none;points=[[0,0.5],[1,0.5]];portConstraint=eastwest;top=0;left=0;right=0;bottom=0;" parent="C-vyLk0tnHw3VtMMgP7b-23" vertex="1">
          <mxGeometry y="30" width="250" height="31" as="geometry" />
        </mxCell>
        <mxCell id="C-vyLk0tnHw3VtMMgP7b-28" value="" style="shape=partialRectangle;overflow=hidden;connectable=0;fillColor=none;top=0;left=0;bottom=0;right=0;" parent="C-vyLk0tnHw3VtMMgP7b-27" vertex="1">
          <mxGeometry width="30" height="31" as="geometry">
            <mxRectangle width="30" height="31" as="alternateBounds" />
          </mxGeometry>
        </mxCell>
        <mxCell id="C-vyLk0tnHw3VtMMgP7b-29" value="reputation int" style="shape=partialRectangle;overflow=hidden;connectable=0;fillColor=none;top=0;left=0;bottom=0;right=0;align=left;spacingLeft=6;" parent="C-vyLk0tnHw3VtMMgP7b-27" vertex="1">
          <mxGeometry x="30" width="220" height="31" as="geometry">
            <mxRectangle width="220" height="31" as="alternateBounds" />
          </mxGeometry>
        </mxCell>
        <mxCell id="bMOGCI0mvxFbiY0Pb2sO-144" value="Product" style="shape=table;startSize=30;container=1;collapsible=1;childLayout=tableLayout;fixedRows=1;rowLines=0;fontStyle=1;align=center;resizeLast=1;swimlaneLine=1;" parent="1" vertex="1">
          <mxGeometry x="-194" y="767" width="250" height="150" as="geometry" />
        </mxCell>
        <mxCell id="bMOGCI0mvxFbiY0Pb2sO-160" value="" style="shape=tableRow;horizontal=0;startSize=0;swimlaneHead=0;swimlaneBody=0;fillColor=none;collapsible=0;dropTarget=0;points=[[0,0.5],[1,0.5]];portConstraint=eastwest;top=0;left=0;right=0;bottom=1;" parent="bMOGCI0mvxFbiY0Pb2sO-144" vertex="1">
          <mxGeometry y="30" width="250" height="30" as="geometry" />
        </mxCell>
        <mxCell id="bMOGCI0mvxFbiY0Pb2sO-161" value="PK" style="shape=partialRectangle;connectable=0;fillColor=none;top=0;left=0;bottom=0;right=0;fontStyle=1;overflow=hidden;whiteSpace=wrap;html=1;" parent="bMOGCI0mvxFbiY0Pb2sO-160" vertex="1">
          <mxGeometry width="30" height="30" as="geometry">
            <mxRectangle width="30" height="30" as="alternateBounds" />
          </mxGeometry>
        </mxCell>
        <mxCell id="bMOGCI0mvxFbiY0Pb2sO-162" value="productID int NOT NULL" style="shape=partialRectangle;connectable=0;fillColor=none;top=0;left=0;bottom=0;right=0;align=left;spacingLeft=6;fontStyle=5;overflow=hidden;whiteSpace=wrap;html=1;" parent="bMOGCI0mvxFbiY0Pb2sO-160" vertex="1">
          <mxGeometry x="30" width="220" height="30" as="geometry">
            <mxRectangle width="220" height="30" as="alternateBounds" />
          </mxGeometry>
        </mxCell>
        <mxCell id="bMOGCI0mvxFbiY0Pb2sO-209" value="" style="shape=partialRectangle;collapsible=0;dropTarget=0;pointerEvents=0;fillColor=none;points=[[0,0.5],[1,0.5]];portConstraint=eastwest;top=0;left=0;right=0;bottom=0;" parent="bMOGCI0mvxFbiY0Pb2sO-144" vertex="1">
          <mxGeometry y="60" width="250" height="30" as="geometry" />
        </mxCell>
        <mxCell id="bMOGCI0mvxFbiY0Pb2sO-210" value="FK" style="shape=partialRectangle;overflow=hidden;connectable=0;fillColor=none;top=0;left=0;bottom=0;right=0;" parent="bMOGCI0mvxFbiY0Pb2sO-209" vertex="1">
          <mxGeometry width="30" height="30" as="geometry">
            <mxRectangle width="30" height="30" as="alternateBounds" />
          </mxGeometry>
        </mxCell>
        <mxCell id="bMOGCI0mvxFbiY0Pb2sO-211" value="sellerID int NOT NULL" style="shape=partialRectangle;overflow=hidden;connectable=0;fillColor=none;top=0;left=0;bottom=0;right=0;align=left;spacingLeft=6;" parent="bMOGCI0mvxFbiY0Pb2sO-209" vertex="1">
          <mxGeometry x="30" width="220" height="30" as="geometry">
            <mxRectangle width="220" height="30" as="alternateBounds" />
          </mxGeometry>
        </mxCell>
        <mxCell id="bMOGCI0mvxFbiY0Pb2sO-153" value="" style="shape=partialRectangle;collapsible=0;dropTarget=0;pointerEvents=0;fillColor=none;points=[[0,0.5],[1,0.5]];portConstraint=eastwest;top=0;left=0;right=0;bottom=0;" parent="bMOGCI0mvxFbiY0Pb2sO-144" vertex="1">
          <mxGeometry y="90" width="250" height="30" as="geometry" />
        </mxCell>
        <mxCell id="bMOGCI0mvxFbiY0Pb2sO-154" value="" style="shape=partialRectangle;overflow=hidden;connectable=0;fillColor=none;top=0;left=0;bottom=0;right=0;" parent="bMOGCI0mvxFbiY0Pb2sO-153" vertex="1">
          <mxGeometry width="30" height="30" as="geometry">
            <mxRectangle width="30" height="30" as="alternateBounds" />
          </mxGeometry>
        </mxCell>
        <mxCell id="bMOGCI0mvxFbiY0Pb2sO-155" value="productDescription varchar(255)" style="shape=partialRectangle;overflow=hidden;connectable=0;fillColor=none;top=0;left=0;bottom=0;right=0;align=left;spacingLeft=6;" parent="bMOGCI0mvxFbiY0Pb2sO-153" vertex="1">
          <mxGeometry x="30" width="220" height="30" as="geometry">
            <mxRectangle width="220" height="30" as="alternateBounds" />
          </mxGeometry>
        </mxCell>
        <mxCell id="bMOGCI0mvxFbiY0Pb2sO-156" value="" style="shape=partialRectangle;collapsible=0;dropTarget=0;pointerEvents=0;fillColor=none;points=[[0,0.5],[1,0.5]];portConstraint=eastwest;top=0;left=0;right=0;bottom=0;" parent="bMOGCI0mvxFbiY0Pb2sO-144" vertex="1">
          <mxGeometry y="120" width="250" height="30" as="geometry" />
        </mxCell>
        <mxCell id="bMOGCI0mvxFbiY0Pb2sO-157" value="" style="shape=partialRectangle;overflow=hidden;connectable=0;fillColor=none;top=0;left=0;bottom=0;right=0;" parent="bMOGCI0mvxFbiY0Pb2sO-156" vertex="1">
          <mxGeometry width="30" height="30" as="geometry">
            <mxRectangle width="30" height="30" as="alternateBounds" />
          </mxGeometry>
        </mxCell>
        <mxCell id="bMOGCI0mvxFbiY0Pb2sO-158" value="category varchar(20)" style="shape=partialRectangle;overflow=hidden;connectable=0;fillColor=none;top=0;left=0;bottom=0;right=0;align=left;spacingLeft=6;" parent="bMOGCI0mvxFbiY0Pb2sO-156" vertex="1">
          <mxGeometry x="30" width="220" height="30" as="geometry">
            <mxRectangle width="220" height="30" as="alternateBounds" />
          </mxGeometry>
        </mxCell>
        <mxCell id="bMOGCI0mvxFbiY0Pb2sO-195" style="rounded=0;orthogonalLoop=1;jettySize=auto;html=1;exitX=0.856;exitY=0.033;exitDx=0;exitDy=0;entryX=0.076;entryY=1.133;entryDx=0;entryDy=0;entryPerimeter=0;endArrow=block;endFill=0;endSize=19;exitPerimeter=0;" parent="1" source="C-vyLk0tnHw3VtMMgP7b-23" target="bMOGCI0mvxFbiY0Pb2sO-82" edge="1">
          <mxGeometry relative="1" as="geometry" />
        </mxCell>
        <mxCell id="bMOGCI0mvxFbiY0Pb2sO-218" value="Bid" style="shape=table;startSize=30;container=1;collapsible=1;childLayout=tableLayout;fixedRows=1;rowLines=0;fontStyle=1;align=center;resizeLast=1;" parent="1" vertex="1">
          <mxGeometry x="162" y="182" width="250" height="210" as="geometry">
            <mxRectangle x="380" y="578" width="54" height="30" as="alternateBounds" />
          </mxGeometry>
        </mxCell>
        <mxCell id="bMOGCI0mvxFbiY0Pb2sO-219" value="" style="shape=partialRectangle;collapsible=0;dropTarget=0;pointerEvents=0;fillColor=none;points=[[0,0.5],[1,0.5]];portConstraint=eastwest;top=0;left=0;right=0;bottom=1;" parent="bMOGCI0mvxFbiY0Pb2sO-218" vertex="1">
          <mxGeometry y="30" width="250" height="30" as="geometry" />
        </mxCell>
        <mxCell id="bMOGCI0mvxFbiY0Pb2sO-220" value="PK" style="shape=partialRectangle;overflow=hidden;connectable=0;fillColor=none;top=0;left=0;bottom=0;right=0;fontStyle=1;" parent="bMOGCI0mvxFbiY0Pb2sO-219" vertex="1">
          <mxGeometry width="30" height="30" as="geometry">
            <mxRectangle width="30" height="30" as="alternateBounds" />
          </mxGeometry>
        </mxCell>
        <mxCell id="bMOGCI0mvxFbiY0Pb2sO-221" value="bidID int NOT NULL " style="shape=partialRectangle;overflow=hidden;connectable=0;fillColor=none;top=0;left=0;bottom=0;right=0;align=left;spacingLeft=6;fontStyle=5;" parent="bMOGCI0mvxFbiY0Pb2sO-219" vertex="1">
          <mxGeometry x="30" width="220" height="30" as="geometry">
            <mxRectangle width="220" height="30" as="alternateBounds" />
          </mxGeometry>
        </mxCell>
        <mxCell id="bMOGCI0mvxFbiY0Pb2sO-222" value="" style="shape=partialRectangle;collapsible=0;dropTarget=0;pointerEvents=0;fillColor=none;points=[[0,0.5],[1,0.5]];portConstraint=eastwest;top=0;left=0;right=0;bottom=0;" parent="bMOGCI0mvxFbiY0Pb2sO-218" vertex="1">
          <mxGeometry y="60" width="250" height="30" as="geometry" />
        </mxCell>
        <mxCell id="bMOGCI0mvxFbiY0Pb2sO-223" value="FK1" style="shape=partialRectangle;overflow=hidden;connectable=0;fillColor=none;top=0;left=0;bottom=0;right=0;" parent="bMOGCI0mvxFbiY0Pb2sO-222" vertex="1">
          <mxGeometry width="30" height="30" as="geometry">
            <mxRectangle width="30" height="30" as="alternateBounds" />
          </mxGeometry>
        </mxCell>
        <mxCell id="bMOGCI0mvxFbiY0Pb2sO-224" value="buyerID int NOT NULL" style="shape=partialRectangle;overflow=hidden;connectable=0;fillColor=none;top=0;left=0;bottom=0;right=0;align=left;spacingLeft=6;" parent="bMOGCI0mvxFbiY0Pb2sO-222" vertex="1">
          <mxGeometry x="30" width="220" height="30" as="geometry">
            <mxRectangle width="220" height="30" as="alternateBounds" />
          </mxGeometry>
        </mxCell>
        <mxCell id="bMOGCI0mvxFbiY0Pb2sO-233" value="" style="shape=partialRectangle;collapsible=0;dropTarget=0;pointerEvents=0;fillColor=none;points=[[0,0.5],[1,0.5]];portConstraint=eastwest;top=0;left=0;right=0;bottom=0;" parent="bMOGCI0mvxFbiY0Pb2sO-218" vertex="1">
          <mxGeometry y="90" width="250" height="30" as="geometry" />
        </mxCell>
        <mxCell id="bMOGCI0mvxFbiY0Pb2sO-234" value="FK2" style="shape=partialRectangle;overflow=hidden;connectable=0;fillColor=none;top=0;left=0;bottom=0;right=0;" parent="bMOGCI0mvxFbiY0Pb2sO-233" vertex="1">
          <mxGeometry width="30" height="30" as="geometry">
            <mxRectangle width="30" height="30" as="alternateBounds" />
          </mxGeometry>
        </mxCell>
        <mxCell id="bMOGCI0mvxFbiY0Pb2sO-235" value="auctionID int NOT NULL" style="shape=partialRectangle;overflow=hidden;connectable=0;fillColor=none;top=0;left=0;bottom=0;right=0;align=left;spacingLeft=6;" parent="bMOGCI0mvxFbiY0Pb2sO-233" vertex="1">
          <mxGeometry x="30" width="220" height="30" as="geometry">
            <mxRectangle width="220" height="30" as="alternateBounds" />
          </mxGeometry>
        </mxCell>
        <mxCell id="bMOGCI0mvxFbiY0Pb2sO-225" value="" style="shape=partialRectangle;collapsible=0;dropTarget=0;pointerEvents=0;fillColor=none;points=[[0,0.5],[1,0.5]];portConstraint=eastwest;top=0;left=0;right=0;bottom=0;" parent="bMOGCI0mvxFbiY0Pb2sO-218" vertex="1">
          <mxGeometry y="120" width="250" height="30" as="geometry" />
        </mxCell>
        <mxCell id="bMOGCI0mvxFbiY0Pb2sO-226" value="" style="shape=partialRectangle;overflow=hidden;connectable=0;fillColor=none;top=0;left=0;bottom=0;right=0;" parent="bMOGCI0mvxFbiY0Pb2sO-225" vertex="1">
          <mxGeometry width="30" height="30" as="geometry">
            <mxRectangle width="30" height="30" as="alternateBounds" />
          </mxGeometry>
        </mxCell>
        <mxCell id="bMOGCI0mvxFbiY0Pb2sO-227" value="price double NOT NULL" style="shape=partialRectangle;overflow=hidden;connectable=0;fillColor=none;top=0;left=0;bottom=0;right=0;align=left;spacingLeft=6;" parent="bMOGCI0mvxFbiY0Pb2sO-225" vertex="1">
          <mxGeometry x="30" width="220" height="30" as="geometry">
            <mxRectangle width="220" height="30" as="alternateBounds" />
          </mxGeometry>
        </mxCell>
        <mxCell id="bMOGCI0mvxFbiY0Pb2sO-279" value="" style="shape=partialRectangle;collapsible=0;dropTarget=0;pointerEvents=0;fillColor=none;points=[[0,0.5],[1,0.5]];portConstraint=eastwest;top=0;left=0;right=0;bottom=0;" parent="bMOGCI0mvxFbiY0Pb2sO-218" vertex="1">
          <mxGeometry y="150" width="250" height="30" as="geometry" />
        </mxCell>
        <mxCell id="bMOGCI0mvxFbiY0Pb2sO-280" value="" style="shape=partialRectangle;overflow=hidden;connectable=0;fillColor=none;top=0;left=0;bottom=0;right=0;" parent="bMOGCI0mvxFbiY0Pb2sO-279" vertex="1">
          <mxGeometry width="30" height="30" as="geometry">
            <mxRectangle width="30" height="30" as="alternateBounds" />
          </mxGeometry>
        </mxCell>
        <mxCell id="bMOGCI0mvxFbiY0Pb2sO-281" value="status varchar(10) NOT NULL" style="shape=partialRectangle;overflow=hidden;connectable=0;fillColor=none;top=0;left=0;bottom=0;right=0;align=left;spacingLeft=6;" parent="bMOGCI0mvxFbiY0Pb2sO-279" vertex="1">
          <mxGeometry x="30" width="220" height="30" as="geometry">
            <mxRectangle width="220" height="30" as="alternateBounds" />
          </mxGeometry>
        </mxCell>
        <mxCell id="bMOGCI0mvxFbiY0Pb2sO-282" value="" style="shape=partialRectangle;collapsible=0;dropTarget=0;pointerEvents=0;fillColor=none;points=[[0,0.5],[1,0.5]];portConstraint=eastwest;top=0;left=0;right=0;bottom=0;" parent="bMOGCI0mvxFbiY0Pb2sO-218" vertex="1">
          <mxGeometry y="180" width="250" height="30" as="geometry" />
        </mxCell>
        <mxCell id="bMOGCI0mvxFbiY0Pb2sO-283" value="" style="shape=partialRectangle;overflow=hidden;connectable=0;fillColor=none;top=0;left=0;bottom=0;right=0;" parent="bMOGCI0mvxFbiY0Pb2sO-282" vertex="1">
          <mxGeometry width="30" height="30" as="geometry">
            <mxRectangle width="30" height="30" as="alternateBounds" />
          </mxGeometry>
        </mxCell>
        <mxCell id="bMOGCI0mvxFbiY0Pb2sO-284" value="bidDate datetime NOT NULL" style="shape=partialRectangle;overflow=hidden;connectable=0;fillColor=none;top=0;left=0;bottom=0;right=0;align=left;spacingLeft=6;" parent="bMOGCI0mvxFbiY0Pb2sO-282" vertex="1">
          <mxGeometry x="30" width="220" height="30" as="geometry">
            <mxRectangle width="220" height="30" as="alternateBounds" />
          </mxGeometry>
        </mxCell>
        <mxCell id="bMOGCI0mvxFbiY0Pb2sO-230" value="*" style="text;html=1;align=center;verticalAlign=middle;resizable=0;points=[];autosize=1;strokeColor=none;fillColor=none;" parent="1" vertex="1">
          <mxGeometry x="91" y="152.00000000000003" width="23" height="26" as="geometry" />
        </mxCell>
        <mxCell id="bMOGCI0mvxFbiY0Pb2sO-231" value="*" style="text;html=1;align=center;verticalAlign=middle;resizable=0;points=[];autosize=1;strokeColor=none;fillColor=none;" parent="1" vertex="1">
          <mxGeometry x="86" y="387" width="23" height="26" as="geometry" />
        </mxCell>
        <mxCell id="bMOGCI0mvxFbiY0Pb2sO-238" value="Auction" style="shape=table;startSize=30;container=1;collapsible=1;childLayout=tableLayout;fixedRows=1;rowLines=0;fontStyle=1;align=center;resizeLast=1;swimlaneLine=1;" parent="1" vertex="1">
          <mxGeometry x="-74" y="429" width="250" height="270" as="geometry" />
        </mxCell>
        <mxCell id="bMOGCI0mvxFbiY0Pb2sO-239" value="" style="shape=tableRow;horizontal=0;startSize=0;swimlaneHead=0;swimlaneBody=0;fillColor=none;collapsible=0;dropTarget=0;points=[[0,0.5],[1,0.5]];portConstraint=eastwest;top=0;left=0;right=0;bottom=1;" parent="bMOGCI0mvxFbiY0Pb2sO-238" vertex="1">
          <mxGeometry y="30" width="250" height="30" as="geometry" />
        </mxCell>
        <mxCell id="bMOGCI0mvxFbiY0Pb2sO-240" value="PK" style="shape=partialRectangle;connectable=0;fillColor=none;top=0;left=0;bottom=0;right=0;fontStyle=1;overflow=hidden;whiteSpace=wrap;html=1;" parent="bMOGCI0mvxFbiY0Pb2sO-239" vertex="1">
          <mxGeometry width="30" height="30" as="geometry">
            <mxRectangle width="30" height="30" as="alternateBounds" />
          </mxGeometry>
        </mxCell>
        <mxCell id="bMOGCI0mvxFbiY0Pb2sO-241" value="auctionID int NOT NULL" style="shape=partialRectangle;connectable=0;fillColor=none;top=0;left=0;bottom=0;right=0;align=left;spacingLeft=6;fontStyle=5;overflow=hidden;whiteSpace=wrap;html=1;" parent="bMOGCI0mvxFbiY0Pb2sO-239" vertex="1">
          <mxGeometry x="30" width="220" height="30" as="geometry">
            <mxRectangle width="220" height="30" as="alternateBounds" />
          </mxGeometry>
        </mxCell>
        <mxCell id="bMOGCI0mvxFbiY0Pb2sO-259" value="" style="shape=partialRectangle;collapsible=0;dropTarget=0;pointerEvents=0;fillColor=none;points=[[0,0.5],[1,0.5]];portConstraint=eastwest;top=0;left=0;right=0;bottom=0;" parent="bMOGCI0mvxFbiY0Pb2sO-238" vertex="1">
          <mxGeometry y="60" width="250" height="30" as="geometry" />
        </mxCell>
        <mxCell id="bMOGCI0mvxFbiY0Pb2sO-260" value="FK1" style="shape=partialRectangle;overflow=hidden;connectable=0;fillColor=none;top=0;left=0;bottom=0;right=0;" parent="bMOGCI0mvxFbiY0Pb2sO-259" vertex="1">
          <mxGeometry width="30" height="30" as="geometry">
            <mxRectangle width="30" height="30" as="alternateBounds" />
          </mxGeometry>
        </mxCell>
        <mxCell id="bMOGCI0mvxFbiY0Pb2sO-261" value="productID int NOT NULL" style="shape=partialRectangle;overflow=hidden;connectable=0;fillColor=none;top=0;left=0;bottom=0;right=0;align=left;spacingLeft=6;" parent="bMOGCI0mvxFbiY0Pb2sO-259" vertex="1">
          <mxGeometry x="30" width="220" height="30" as="geometry">
            <mxRectangle width="220" height="30" as="alternateBounds" />
          </mxGeometry>
        </mxCell>
        <mxCell id="bMOGCI0mvxFbiY0Pb2sO-271" value="" style="shape=partialRectangle;collapsible=0;dropTarget=0;pointerEvents=0;fillColor=none;points=[[0,0.5],[1,0.5]];portConstraint=eastwest;top=0;left=0;right=0;bottom=0;" parent="bMOGCI0mvxFbiY0Pb2sO-238" vertex="1">
          <mxGeometry y="90" width="250" height="30" as="geometry" />
        </mxCell>
        <mxCell id="bMOGCI0mvxFbiY0Pb2sO-272" value="FK2" style="shape=partialRectangle;overflow=hidden;connectable=0;fillColor=none;top=0;left=0;bottom=0;right=0;" parent="bMOGCI0mvxFbiY0Pb2sO-271" vertex="1">
          <mxGeometry width="30" height="30" as="geometry">
            <mxRectangle width="30" height="30" as="alternateBounds" />
          </mxGeometry>
        </mxCell>
        <mxCell id="bMOGCI0mvxFbiY0Pb2sO-273" value="winnerID int" style="shape=partialRectangle;overflow=hidden;connectable=0;fillColor=none;top=0;left=0;bottom=0;right=0;align=left;spacingLeft=6;" parent="bMOGCI0mvxFbiY0Pb2sO-271" vertex="1">
          <mxGeometry x="30" width="220" height="30" as="geometry">
            <mxRectangle width="220" height="30" as="alternateBounds" />
          </mxGeometry>
        </mxCell>
        <mxCell id="bMOGCI0mvxFbiY0Pb2sO-245" value="" style="shape=partialRectangle;collapsible=0;dropTarget=0;pointerEvents=0;fillColor=none;points=[[0,0.5],[1,0.5]];portConstraint=eastwest;top=0;left=0;right=0;bottom=0;" parent="bMOGCI0mvxFbiY0Pb2sO-238" vertex="1">
          <mxGeometry y="120" width="250" height="30" as="geometry" />
        </mxCell>
        <mxCell id="bMOGCI0mvxFbiY0Pb2sO-246" value="" style="shape=partialRectangle;overflow=hidden;connectable=0;fillColor=none;top=0;left=0;bottom=0;right=0;" parent="bMOGCI0mvxFbiY0Pb2sO-245" vertex="1">
          <mxGeometry width="30" height="30" as="geometry">
            <mxRectangle width="30" height="30" as="alternateBounds" />
          </mxGeometry>
        </mxCell>
        <mxCell id="bMOGCI0mvxFbiY0Pb2sO-247" value="auctionDescription varchar(255)" style="shape=partialRectangle;overflow=hidden;connectable=0;fillColor=none;top=0;left=0;bottom=0;right=0;align=left;spacingLeft=6;" parent="bMOGCI0mvxFbiY0Pb2sO-245" vertex="1">
          <mxGeometry x="30" width="220" height="30" as="geometry">
            <mxRectangle width="220" height="30" as="alternateBounds" />
          </mxGeometry>
        </mxCell>
        <mxCell id="bMOGCI0mvxFbiY0Pb2sO-248" value="" style="shape=partialRectangle;collapsible=0;dropTarget=0;pointerEvents=0;fillColor=none;points=[[0,0.5],[1,0.5]];portConstraint=eastwest;top=0;left=0;right=0;bottom=0;" parent="bMOGCI0mvxFbiY0Pb2sO-238" vertex="1">
          <mxGeometry y="150" width="250" height="30" as="geometry" />
        </mxCell>
        <mxCell id="bMOGCI0mvxFbiY0Pb2sO-249" value="" style="shape=partialRectangle;overflow=hidden;connectable=0;fillColor=none;top=0;left=0;bottom=0;right=0;" parent="bMOGCI0mvxFbiY0Pb2sO-248" vertex="1">
          <mxGeometry width="30" height="30" as="geometry">
            <mxRectangle width="30" height="30" as="alternateBounds" />
          </mxGeometry>
        </mxCell>
        <mxCell id="bMOGCI0mvxFbiY0Pb2sO-250" value="startTime datetime NOT NULL" style="shape=partialRectangle;overflow=hidden;connectable=0;fillColor=none;top=0;left=0;bottom=0;right=0;align=left;spacingLeft=6;" parent="bMOGCI0mvxFbiY0Pb2sO-248" vertex="1">
          <mxGeometry x="30" width="220" height="30" as="geometry">
            <mxRectangle width="220" height="30" as="alternateBounds" />
          </mxGeometry>
        </mxCell>
        <mxCell id="bMOGCI0mvxFbiY0Pb2sO-262" value="" style="shape=partialRectangle;collapsible=0;dropTarget=0;pointerEvents=0;fillColor=none;points=[[0,0.5],[1,0.5]];portConstraint=eastwest;top=0;left=0;right=0;bottom=0;" parent="bMOGCI0mvxFbiY0Pb2sO-238" vertex="1">
          <mxGeometry y="180" width="250" height="30" as="geometry" />
        </mxCell>
        <mxCell id="bMOGCI0mvxFbiY0Pb2sO-263" value="" style="shape=partialRectangle;overflow=hidden;connectable=0;fillColor=none;top=0;left=0;bottom=0;right=0;" parent="bMOGCI0mvxFbiY0Pb2sO-262" vertex="1">
          <mxGeometry width="30" height="30" as="geometry">
            <mxRectangle width="30" height="30" as="alternateBounds" />
          </mxGeometry>
        </mxCell>
        <mxCell id="bMOGCI0mvxFbiY0Pb2sO-264" value="endTime datetime NOT NULL" style="shape=partialRectangle;overflow=hidden;connectable=0;fillColor=none;top=0;left=0;bottom=0;right=0;align=left;spacingLeft=6;" parent="bMOGCI0mvxFbiY0Pb2sO-262" vertex="1">
          <mxGeometry x="30" width="220" height="30" as="geometry">
            <mxRectangle width="220" height="30" as="alternateBounds" />
          </mxGeometry>
        </mxCell>
        <mxCell id="bMOGCI0mvxFbiY0Pb2sO-265" value="" style="shape=partialRectangle;collapsible=0;dropTarget=0;pointerEvents=0;fillColor=none;points=[[0,0.5],[1,0.5]];portConstraint=eastwest;top=0;left=0;right=0;bottom=0;" parent="bMOGCI0mvxFbiY0Pb2sO-238" vertex="1">
          <mxGeometry y="210" width="250" height="30" as="geometry" />
        </mxCell>
        <mxCell id="bMOGCI0mvxFbiY0Pb2sO-266" value="" style="shape=partialRectangle;overflow=hidden;connectable=0;fillColor=none;top=0;left=0;bottom=0;right=0;" parent="bMOGCI0mvxFbiY0Pb2sO-265" vertex="1">
          <mxGeometry width="30" height="30" as="geometry">
            <mxRectangle width="30" height="30" as="alternateBounds" />
          </mxGeometry>
        </mxCell>
        <mxCell id="bMOGCI0mvxFbiY0Pb2sO-267" value="startingPrice double NOT NULL" style="shape=partialRectangle;overflow=hidden;connectable=0;fillColor=none;top=0;left=0;bottom=0;right=0;align=left;spacingLeft=6;" parent="bMOGCI0mvxFbiY0Pb2sO-265" vertex="1">
          <mxGeometry x="30" width="220" height="30" as="geometry">
            <mxRectangle width="220" height="30" as="alternateBounds" />
          </mxGeometry>
        </mxCell>
        <mxCell id="bMOGCI0mvxFbiY0Pb2sO-268" value="" style="shape=partialRectangle;collapsible=0;dropTarget=0;pointerEvents=0;fillColor=none;points=[[0,0.5],[1,0.5]];portConstraint=eastwest;top=0;left=0;right=0;bottom=0;" parent="bMOGCI0mvxFbiY0Pb2sO-238" vertex="1">
          <mxGeometry y="240" width="250" height="30" as="geometry" />
        </mxCell>
        <mxCell id="bMOGCI0mvxFbiY0Pb2sO-269" value="" style="shape=partialRectangle;overflow=hidden;connectable=0;fillColor=none;top=0;left=0;bottom=0;right=0;" parent="bMOGCI0mvxFbiY0Pb2sO-268" vertex="1">
          <mxGeometry width="30" height="30" as="geometry">
            <mxRectangle width="30" height="30" as="alternateBounds" />
          </mxGeometry>
        </mxCell>
        <mxCell id="bMOGCI0mvxFbiY0Pb2sO-270" value="status varchar(10) NOT NULL" style="shape=partialRectangle;overflow=hidden;connectable=0;fillColor=none;top=0;left=0;bottom=0;right=0;align=left;spacingLeft=6;" parent="bMOGCI0mvxFbiY0Pb2sO-268" vertex="1">
          <mxGeometry x="30" width="220" height="30" as="geometry">
            <mxRectangle width="220" height="30" as="alternateBounds" />
          </mxGeometry>
        </mxCell>
        <mxCell id="bMOGCI0mvxFbiY0Pb2sO-15" value="" style="triangle;aspect=fixed;fillColor=strokeColor;rotation=90;strokeWidth=2;" parent="1" vertex="1">
          <mxGeometry x="-167" y="577" width="6" height="12" as="geometry" />
        </mxCell>
        <mxCell id="bMOGCI0mvxFbiY0Pb2sO-148" value="" style="edgeStyle=orthogonalEdgeStyle;rounded=0;orthogonalLoop=1;jettySize=auto;html=1;jumpStyle=none;entryX=0.25;entryY=0;entryDx=0;entryDy=0;" parent="1" source="C-vyLk0tnHw3VtMMgP7b-23" target="bMOGCI0mvxFbiY0Pb2sO-144" edge="1">
          <mxGeometry relative="1" as="geometry">
            <Array as="points">
              <mxPoint x="-131" y="560" />
            </Array>
          </mxGeometry>
        </mxCell>
        <mxCell id="bMOGCI0mvxFbiY0Pb2sO-201" value="&lt;font style=&quot;font-size: 12px;&quot;&gt;Sells&lt;/font&gt;" style="text;html=1;align=center;verticalAlign=middle;resizable=0;points=[];autosize=1;strokeColor=none;fillColor=none;strokeWidth=5;" parent="1" vertex="1">
          <mxGeometry x="-189" y="551" width="44" height="26" as="geometry" />
        </mxCell>
        <mxCell id="bMOGCI0mvxFbiY0Pb2sO-205" value="1" style="text;html=1;align=center;verticalAlign=middle;resizable=0;points=[];autosize=1;strokeColor=none;fillColor=none;" parent="1" vertex="1">
          <mxGeometry x="-162" y="392" width="25" height="26" as="geometry" />
        </mxCell>
        <mxCell id="bMOGCI0mvxFbiY0Pb2sO-206" value="*" style="text;html=1;align=center;verticalAlign=middle;resizable=0;points=[];autosize=1;strokeColor=none;fillColor=none;" parent="1" vertex="1">
          <mxGeometry x="-158" y="741" width="23" height="26" as="geometry" />
        </mxCell>
        <mxCell id="bMOGCI0mvxFbiY0Pb2sO-258" value="" style="edgeStyle=none;orthogonalLoop=1;jettySize=auto;html=1;rounded=0;entryX=0;entryY=0.5;entryDx=0;entryDy=0;dashed=1;dashPattern=12 12;endArrow=none;endFill=0;" parent="1" target="bMOGCI0mvxFbiY0Pb2sO-245" edge="1">
          <mxGeometry width="80" relative="1" as="geometry">
            <mxPoint x="-130" y="564" as="sourcePoint" />
            <mxPoint x="-53" y="554.5" as="targetPoint" />
            <Array as="points" />
          </mxGeometry>
        </mxCell>
        <mxCell id="bMOGCI0mvxFbiY0Pb2sO-277" value="" style="triangle;aspect=fixed;fillColor=strokeColor;rotation=90;strokeWidth=2;" parent="1" vertex="1">
          <mxGeometry x="91" y="295.5" width="6" height="12" as="geometry" />
        </mxCell>
        <mxCell id="bMOGCI0mvxFbiY0Pb2sO-278" value="&lt;font style=&quot;font-size: 12px;&quot;&gt;Bids&lt;/font&gt;" style="text;html=1;align=center;verticalAlign=middle;resizable=0;points=[];autosize=1;strokeColor=none;fillColor=none;strokeWidth=5;" parent="1" vertex="1">
          <mxGeometry x="71" y="269.5" width="41" height="26" as="geometry" />
        </mxCell>
        <mxCell id="bMOGCI0mvxFbiY0Pb2sO-300" style="edgeStyle=orthogonalEdgeStyle;rounded=0;orthogonalLoop=1;jettySize=auto;html=1;entryX=1;entryY=0.5;entryDx=0;entryDy=0;" parent="1" source="bMOGCI0mvxFbiY0Pb2sO-82" target="bMOGCI0mvxFbiY0Pb2sO-209" edge="1">
          <mxGeometry relative="1" as="geometry">
            <Array as="points">
              <mxPoint x="593" y="131" />
              <mxPoint x="593" y="842" />
            </Array>
          </mxGeometry>
        </mxCell>
        <mxCell id="bMOGCI0mvxFbiY0Pb2sO-301" value="*" style="text;html=1;align=center;verticalAlign=middle;resizable=0;points=[];autosize=1;strokeColor=none;fillColor=none;" parent="1" vertex="1">
          <mxGeometry x="68" y="851" width="23" height="26" as="geometry" />
        </mxCell>
        <mxCell id="bMOGCI0mvxFbiY0Pb2sO-302" value="*" style="text;html=1;align=center;verticalAlign=middle;resizable=0;points=[];autosize=1;strokeColor=none;fillColor=none;" parent="1" vertex="1">
          <mxGeometry x="238" y="100" width="23" height="26" as="geometry" />
        </mxCell>
        <mxCell id="bMOGCI0mvxFbiY0Pb2sO-303" value="" style="triangle;aspect=fixed;fillColor=strokeColor;rotation=90;strokeWidth=2;" parent="1" vertex="1">
          <mxGeometry x="555" y="513" width="6" height="12" as="geometry" />
        </mxCell>
        <mxCell id="bMOGCI0mvxFbiY0Pb2sO-304" value="&lt;font style=&quot;font-size: 12px;&quot;&gt;Views&lt;/font&gt;" style="text;html=1;align=center;verticalAlign=middle;resizable=0;points=[];autosize=1;strokeColor=none;fillColor=none;strokeWidth=5;" parent="1" vertex="1">
          <mxGeometry x="531" y="487" width="50" height="26" as="geometry" />
        </mxCell>
        <mxCell id="bMOGCI0mvxFbiY0Pb2sO-305" value="" style="endArrow=none;html=1;rounded=0;align=center;verticalAlign=bottom;labelBackgroundColor=none;startArrow=none;startFill=0;entryX=0.5;entryY=1;entryDx=0;entryDy=0;dashed=1;dashPattern=12 12;" parent="1" target="C-vyLk0tnHw3VtMMgP7b-13" edge="1">
          <mxGeometry relative="1" as="geometry">
            <mxPoint x="388" y="848" as="sourcePoint" />
            <mxPoint x="365" y="610" as="targetPoint" />
          </mxGeometry>
        </mxCell>
      </root>
    </mxGraphModel>
  </diagram>
</mxfile>
